<?xml version="1.0" ?><!DOCTYPE svg  PUBLIC '-//W3C//DTD SVG 1.1//EN'  'http://www.w3.org/Graphics/SVG/1.1/DTD/svg11.dtd'><svg height="512px" id="Layer_1" style="enable-background:new 0 0 512 512;" version="1.1" viewBox="0 0 512 512" width="512px" xml:space="preserve" xmlns="http://www.w3.org/2000/svg" xmlns:xlink="http://www.w3.org/1999/xlink"><g><path d="M511.684,255.144c0.566,141.39-113.603,256.458-254.986,257.024   C115.319,512.729,0.25,398.572-0.313,257.187C-0.879,115.806,113.281,0.738,254.664,0.172   C396.043-0.39,511.122,113.768,511.684,255.144z" style="fill:#FFB300;"/><g><path d="M378.638,213.617l-3.185-2.553c3.125-3.899,7.159-10.659,6.337-13.477    c-0.116-0.371-0.334-0.798-1.184-1.091c-5.144-1.764-23.389,5.589-33.672,10.645l-1.802-3.672    c2.883-1.407,28.371-13.742,36.802-10.831c1.94,0.668,3.249,1.987,3.783,3.812C387.403,202.299,380.119,211.779,378.638,213.617z" style="fill:#231F20;"/><path d="M414.506,215.748c1.431-0.009,59.155-30.347,59.155-30.347s4.555,12.075,5.553,22.975    c0.984,10.905-0.599,28.695-0.599,28.695L414.506,215.748z"/><path d="M25.755,267.195l10.209-17.84l139.647-17l77.953-31.815l92.465,1.003    c0,0,55.808,8.83,79.526,13.872c23.723,5.051,54.141,15.046,54.141,15.046l9.002,23.932l3.431,0.673l0.056,14.382l-24.577,20.645    l-34.894,7.67l-82.851,7.869L151.93,306.42l-72.604-3.139l-39.735-1.207l-8.965-17.775L25.755,267.195z" style="fill:#D1D1D1;"/><polygon points="30.05,259.675 25.755,267.195 30.625,284.299 39.59,302.074 79.325,303.281 151.93,306.42     349.863,305.631 432.714,297.762 467.607,290.092 492.185,269.447 492.139,257.832   " style="fill:#B6B8B7;"/><path d="M25.755,267.195l10.209-17.84l139.647-17l77.953-31.815l92.465,1.003    c0,0,55.808,8.83,79.526,13.872c23.723,5.051,54.141,15.046,54.141,15.046l9.002,23.932l3.431,0.673l0.056,14.382l-24.577,20.645    l-34.894,7.67l-82.851,7.869L151.93,306.42l-72.604-3.139l-39.735-1.207l-8.965-17.775L25.755,267.195z" style="fill:#D1D1D1;"/><polygon points="30.05,259.675 25.755,267.195 30.625,284.299 39.59,302.074 79.325,303.281 151.93,306.42     349.863,305.631 432.714,297.762 467.607,290.092 492.185,269.447 492.139,257.832   " style="fill:#B6B8B7;"/><polygon points="30.041,283.871 39.59,302.074 79.325,303.281 151.93,306.42 349.863,305.631     432.714,297.762 457.923,292.219 66.939,293.778   " style="fill:#251F1F;"/><polygon points="68.262,285.687 19.762,283.291 18.587,267.01 68.202,269.772   " style="fill:#676767;"/><g><path d="M146.888,293.579c0.069,18.291-14.694,33.188-32.995,33.263s-33.185-14.707-33.259-32.998     c-0.074-18.296,14.698-33.185,32.999-33.259C131.925,260.511,146.814,275.283,146.888,293.579z" style="fill:#251F1F;"/><path d="M138.007,293.616c0.056,13.389-10.761,24.284-24.146,24.34     c-13.389,0.051-24.294-10.757-24.346-24.146c-0.051-13.389,10.762-24.289,24.15-24.34     C127.051,269.415,137.951,280.228,138.007,293.616z" style="fill:#C2C2C2;"/><path d="M130.226,293.648c0.037,9.095-7.307,16.499-16.402,16.536s-16.5-7.312-16.537-16.406     c-0.037-9.1,7.312-16.499,16.407-16.536S130.189,284.549,130.226,293.648z" style="fill:#EFEFEF;"/></g><path d="M194.451,233.831c3.324-1.119,57.261-27.251,57.261-27.251l71.449,0.088l0.111,27.762    l-127.702,1.987L194.451,233.831z" style="fill:#251F1F;"/><path d="M166.633,292.841c-1.04-1.389-2.47-4.229-4.132-7.53c-7.052-14.029-18.867-37.511-43.259-38.397    c-21.992-0.794-30.641,5.933-35.265,9.554c-0.51,0.413-1.151,0.896-1.513,1.142c-0.915-0.01-2.224-0.037-3.747-0.07    c-8.333-0.171-14.935-0.246-17.725,0.433c-5.111,1.248-7.479,8.23-8.245,11.174l7.888,2.089c0.585-2.187,1.773-4.702,2.521-5.371    c2.381-0.432,11.453-0.241,15.39-0.158c1.89,0.037,3.468,0.075,4.42,0.07c2.396-0.01,4.164-1.402,6.044-2.879    c3.802-2.976,10.891-8.537,29.935-7.827c19.563,0.719,30.019,21.495,36.258,33.909c1.917,3.802,3.426,6.801,4.912,8.773    c2.572,3.403,5.859,6.235,9.327,8.598l18.129-0.069C181.563,304.141,171.916,299.832,166.633,292.841z" style="fill:#231F20;"/><path d="M338.137,305.677c6.388-7.516,10.659-19.011,12.711-34.363    c2.321-17.27,15.019-24.958,26.138-26.383l-1.049-8.101c-14.113,1.82-30.242,11.55-33.181,33.402    c-2.274,16.95-7.465,28.728-15.027,34.048c-0.836,0.6-1.653,1.059-2.461,1.448L338.137,305.677z" style="fill:#231F20;"/><path d="M197.793,291.629c3.44,0.919,55.58,2.345,82.052,2.237l0,0c15.413-0.06,16.981-0.589,17.497-0.766    c5.859-1.978,24.712-25.548,28.144-31.313c3.598-6.063,9.438-17.65,9.8-22.961c0.241-3.556,0.241-24.034,0.214-37.399l-1.36-0.009    c0.023,13.347,0.023,33.848-0.214,37.316c-0.32,4.81-5.813,15.965-9.614,22.358c-3.282,5.52-21.922,28.871-27.41,30.724    c-0.691,0.237-3.839,0.641-17.061,0.691c0,0,0,0-0.005,0c-27.688,0.112-78.658-1.378-81.694-2.195    c-3.691-0.989-14.647-17.827-15.427-24.985c-0.557-5.145-1.783-24.568-2.414-34.884l-1.328,0.543    c0.636,10.432,1.838,29.396,2.386,34.494C182.157,272.799,193.225,290.398,197.793,291.629z" style="fill:#231F20;"/><polygon points="28.364,262.632 492.147,260.784 492.134,256.699 30.709,258.537   " style="fill:#231F20;"/><polygon points="30.653,258.64 492.134,256.801 492.129,255.065 488.698,254.392     488.071,252.734 32.984,254.545   " style="fill:#FAFAFA;fill-opacity:0.78;"/><g><path d="M434.487,289.262c0.084,20.046-16.109,36.363-36.16,36.447     c-20.047,0.079-36.365-16.114-36.444-36.16c-0.078-20.051,16.105-36.369,36.151-36.447     C418.09,253.022,434.413,269.211,434.487,289.262z" style="fill:#251F1F;"/><path d="M424.757,289.299c0.056,14.67-11.792,26.61-26.472,26.67     c-14.67,0.057-26.611-11.787-26.667-26.457c-0.06-14.67,11.788-26.619,26.458-26.675     C412.751,262.776,424.696,274.628,424.757,289.299z" style="fill:#C2C2C2;"/><path d="M416.233,289.331c0.037,9.967-8.014,18.082-17.976,18.124c-9.973,0.037-18.078-8.013-18.12-17.98     c-0.042-9.967,8.008-18.082,17.971-18.119C408.081,271.313,416.191,279.363,416.233,289.331z" style="fill:#EFEFEF;"/></g><path d="M350.077,206.199" style="fill:#D1D1D1;"/><path d="M455.787,234.216c-0.511,3.426-4.191,3.203-4.191,3.203l-95.817-7.149l-11.745-23.797l108.561,22.874    C452.594,229.346,456.4,230.13,455.787,234.216z"/><path d="M368.88,228.343c0.014,2.953-2.303,5.348-5.177,5.357l0,0c-2.869,0.014-5.204-2.363-5.214-5.316    l-0.042-9.424c-0.014-2.953,2.308-5.348,5.177-5.362l0,0c2.869-0.009,5.209,2.368,5.219,5.32L368.88,228.343z" style="fill:#0776C7;"/><path d="M383.243,231.003c0.015,2.953-2.303,5.348-5.176,5.362l0,0c-2.865,0.009-5.205-2.368-5.214-5.32    l-0.037-9.424c-0.014-2.948,2.308-5.348,5.172-5.357l0,0c2.873-0.014,5.209,2.372,5.218,5.315L383.243,231.003z" style="fill:#0776C7;"/><path d="M397.612,233.673c0.014,2.948-2.308,5.343-5.177,5.357l0,0c-2.869,0.009-5.209-2.368-5.218-5.316    l-0.037-9.424c-0.01-2.948,2.303-5.353,5.171-5.362l0,0c2.879-0.014,5.209,2.373,5.224,5.32L397.612,233.673z" style="fill:#0776C7;"/><path d="M345.188,197.954c0.005,1.323-1.063,2.405-2.391,2.41l-19.238,0.079    c-1.328,0.004-2.405-1.068-2.414-2.391l0,0c-0.005-1.328,1.063-2.414,2.391-2.418l19.243-0.079    C344.107,195.549,345.184,196.626,345.188,197.954L345.188,197.954z" style="fill:#949494;"/><path d="M342.157,189.05c0.005,1.648-1.323,2.98-2.967,2.985l-11.318,0.046    c-1.644,0.005-2.98-1.318-2.985-2.962l0,0c-0.009-1.653,1.318-2.985,2.962-2.99l11.318-0.046    C340.811,186.079,342.147,187.401,342.157,189.05L342.157,189.05z" style="fill:#949494;"/><path d="M336.335,192.689c-0.009-1.449-1.179-2.623-2.637-2.619l0,0c-1.448,0.005-2.618,1.188-2.608,2.637    l0.009,3.389c0.009,1.449,1.184,2.619,2.632,2.614l0,0c1.458-0.004,2.623-1.184,2.614-2.632L336.335,192.689z" style="fill:#949494;"/><path d="M488.698,254.392l-9.002-23.932c0,0-5.636-1.857-13.955-4.368l0.26,64.358l1.606-0.358    l24.577-20.645l-0.056-14.382L488.698,254.392z" style="fill:#D1D1D1;"/><rect height="12.079" style="fill:#251F1F;" transform="matrix(1 -0.004 0.004 1 -1.0665 1.9256)" width="27.725" x="465.149" y="260.511"/><g><path d="M457.616,295.779c-0.056-1.477-1.643-36.764-35.668-47.205     c-8.844-2.711-19.494-2.878-29.796-3.041c-12.721-0.2-25.873-0.409-36.996-5.269c-22.2-9.721-23.594-41.406-23.64-42.748     l13.603-0.506c0.009,0.246,1.142,24.499,15.501,30.784c8.612,3.765,19.843,3.941,31.751,4.132     c11.244,0.172,22.878,0.357,33.565,3.64c34.8,10.673,44.837,43.806,45.287,59.832L457.616,295.779z" style="fill:#949494;"/><path d="M339.692,202.48c0.014,0.242,1.146,24.499,15.51,30.784c8.607,3.76,19.848,3.941,31.746,4.123     c11.244,0.181,22.878,0.367,33.574,3.644c31.328,9.61,42.545,37.39,44.81,54.54l5.892-0.172     c-0.45-16.025-10.487-49.159-45.287-59.832c-10.688-3.282-22.321-3.468-33.565-3.64c-11.908-0.19-23.139-0.367-31.751-4.132     c-14.359-6.286-15.492-30.538-15.501-30.784l-13.603,0.506c0.009,0.311,0.098,2.293,0.511,5.241L339.692,202.48z" style="fill:#F6F6F6;"/></g></g><path d="M9.846,327.538c31.017,107.022,129.897,185.094,246.852,184.63   c116.249-0.464,214.034-78.364,244.837-184.63H9.846z" style="fill:#37474F;"/></g></svg>